<svg width="191" height="41" viewBox="0 0 191 41" fill="none" xmlns="http://www.w3.org/2000/svg">
<g filter="url(#filter0_b_131_108)">
<path d="M52.3683 25.4494C55.5921 25.4494 58.3037 27.6366 59.1035 30.6076C59.2552 30.8403 59.3444 31.1174 59.3441 31.4155V33.4349C59.3441 34.253 58.6808 34.9163 57.8627 34.9163H26.2838C24.5895 34.9163 23.407 33.4769 21.3501 33.4769C19.2932 33.4769 17.7695 34.9163 15.912 34.9163H1.53897C0.790954 34.9163 0.193063 34.3682 0.078125 33.6788C0.208701 32.4627 0.965833 25.8881 2.70998 19.2373L7.85041 7.03125C8.50259 7.03125 10.0482 7.83546 11.0132 11.0523C13.0908 13.8 19.8997 17.6468 30.5153 11.0523H30.7163L36.3457 16.0786L38.9594 18.2901L40.9699 20.0996L43.5836 22.1101L45.7952 23.7185C46.7855 24.4704 49.4866 25.8691 52.3683 25.4494Z" fill="white" fill-opacity="0.1"/>
</g>
<path d="M13.2763 13.5864C16.61 15.6524 24.3286 16.1408 30.7831 10.991C30.7831 10.991 28.8519 8.34248 24.4545 10.8526C22.1098 12.191 17.939 12.9815 15.5391 11.0848C13.1392 9.18823 12.4425 6.08594 9.59564 6.08594C8.42541 6.08594 7.77148 7.09849 7.77148 7.09849C10.7182 8.22624 9.94254 11.5204 13.2763 13.5864Z" fill="white"/>
<path d="M28.8906 19.5025C28.5098 20.188 28.8153 21.0522 29.5453 21.3387L29.5472 21.3394C30.1482 21.5751 30.831 21.3306 31.1446 20.7666C32.4415 18.4329 34.6563 16.9705 35.9483 16.271C36.0765 16.2014 36.1862 16.1109 36.2806 16.0088C35.5771 15.3843 34.9096 14.7848 34.2974 14.2305C32.6987 15.1528 30.3645 16.8498 28.8906 19.5025Z" fill="white"/>
<path d="M35.1787 22.003C34.739 22.6895 35.035 23.6072 35.794 23.9049C36.3601 24.1269 37.0153 23.9307 37.3411 23.4172C38.0182 22.3497 40.0605 20.648 40.9673 20.0431C40.2894 19.4809 39.6065 18.9031 38.932 18.3242C37.7044 19.2458 35.9501 20.7981 35.1787 22.003Z" fill="white"/>
<path d="M43.5869 22.1484C42.9092 22.7195 41.7518 23.713 41.5774 23.9046C40.9751 24.5663 41.2436 25.6323 42.0768 25.9591L42.0791 25.9602C42.5696 26.1525 43.1339 26.0331 43.4892 25.644C43.6184 25.5025 45.5156 23.8986 45.6521 23.793C45.6785 23.7727 45.7003 23.7487 45.7246 23.7266C45.0605 23.2658 44.3404 22.7317 43.5869 22.1484Z" fill="white"/>
<path d="M59.0254 30.6086C58.2255 27.6376 55.5139 25.4504 52.2902 25.4504H49.1097V29.9351C49.1097 29.9351 34.3655 32.7864 30.7837 32.7864C27.2018 32.7864 25.0482 29.9351 21.3454 29.9351C17.6426 29.9351 15.2832 32.4786 12.0691 32.4786C8.85495 32.4786 7.0704 31.1191 7.0704 29.9471C7.0704 28.775 7.37456 27.561 7.77229 24.6943C8.15568 21.9311 5.52616 19.4168 2.63185 19.2383C0.887708 25.8891 0.130576 32.4637 0 33.6798C0.114938 34.3692 0.712829 34.9173 1.46084 34.9173H15.8339C17.6914 34.9173 19.215 33.4779 21.2719 33.4779C23.3288 33.4779 24.5113 34.9173 26.2057 34.9173H57.7845C58.6027 34.9173 59.266 34.254 59.266 33.4359V31.4165C59.2662 31.1184 59.1771 30.8413 59.0254 30.6086Z" fill="white"/>
<path d="M71.8302 14.244V13.1H78.5842V14.244H71.8302ZM71.8302 20.734V19.59H78.3642V20.734H71.8302ZM71.1922 13.1H72.4022V28.5H71.1922V13.1ZM82.1586 20.8C82.1586 22.076 82.4299 23.22 82.9726 24.232C83.5299 25.244 84.2852 26.0433 85.2386 26.63C86.2066 27.202 87.3066 27.488 88.5386 27.488C89.7706 27.488 90.8632 27.202 91.8166 26.63C92.7846 26.0433 93.5399 25.244 94.0826 24.232C94.6252 23.22 94.8966 22.076 94.8966 20.8C94.8966 19.5093 94.6252 18.3653 94.0826 17.368C93.5399 16.356 92.7846 15.564 91.8166 14.992C90.8632 14.4053 89.7706 14.112 88.5386 14.112C87.3066 14.112 86.2066 14.4053 85.2386 14.992C84.2852 15.564 83.5299 16.356 82.9726 17.368C82.4299 18.3653 82.1586 19.5093 82.1586 20.8ZM80.8826 20.8C80.8826 19.6707 81.0732 18.6293 81.4546 17.676C81.8359 16.708 82.3712 15.872 83.0606 15.168C83.7499 14.4493 84.5566 13.892 85.4806 13.496C86.4192 13.1 87.4386 12.902 88.5386 12.902C89.6386 12.902 90.6506 13.1 91.5746 13.496C92.5132 13.892 93.3272 14.4493 94.0166 15.168C94.7059 15.872 95.2412 16.708 95.6226 17.676C96.0039 18.6293 96.1946 19.6707 96.1946 20.8C96.1946 21.9293 96.0039 22.978 95.6226 23.946C95.2412 24.8993 94.7059 25.7353 94.0166 26.454C93.3272 27.158 92.5132 27.708 91.5746 28.104C90.6506 28.5 89.6386 28.698 88.5386 28.698C87.4386 28.698 86.4192 28.5 85.4806 28.104C84.5566 27.708 83.7499 27.158 83.0606 26.454C82.3712 25.7353 81.8359 24.8993 81.4546 23.946C81.0732 22.978 80.8826 21.9293 80.8826 20.8ZM99.4105 20.8C99.4105 22.076 99.6818 23.22 100.225 24.232C100.782 25.244 101.537 26.0433 102.491 26.63C103.459 27.202 104.559 27.488 105.791 27.488C107.023 27.488 108.115 27.202 109.069 26.63C110.037 26.0433 110.792 25.244 111.335 24.232C111.877 23.22 112.149 22.076 112.149 20.8C112.149 19.5093 111.877 18.3653 111.335 17.368C110.792 16.356 110.037 15.564 109.069 14.992C108.115 14.4053 107.023 14.112 105.791 14.112C104.559 14.112 103.459 14.4053 102.491 14.992C101.537 15.564 100.782 16.356 100.225 17.368C99.6818 18.3653 99.4105 19.5093 99.4105 20.8ZM98.1345 20.8C98.1345 19.6707 98.3252 18.6293 98.7065 17.676C99.0878 16.708 99.6232 15.872 100.313 15.168C101.002 14.4493 101.809 13.892 102.733 13.496C103.671 13.1 104.691 12.902 105.791 12.902C106.891 12.902 107.903 13.1 108.827 13.496C109.765 13.892 110.579 14.4493 111.269 15.168C111.958 15.872 112.493 16.708 112.875 17.676C113.256 18.6293 113.447 19.6707 113.447 20.8C113.447 21.9293 113.256 22.978 112.875 23.946C112.493 24.8993 111.958 25.7353 111.269 26.454C110.579 27.158 109.765 27.708 108.827 28.104C107.903 28.5 106.891 28.698 105.791 28.698C104.691 28.698 103.671 28.5 102.733 28.104C101.809 27.708 101.002 27.158 100.313 26.454C99.6232 25.7353 99.0878 24.8993 98.7065 23.946C98.3252 22.978 98.1345 21.9293 98.1345 20.8ZM114.06 14.244V13.1H123.366V14.244H119.318V28.5H118.108V14.244H114.06ZM127.374 15.85V13.1H134.26V15.85H127.374ZM127.374 21.922V19.304H134.04V21.922H127.374ZM125.35 13.1H128.386V28.5H125.35V13.1ZM137.145 13.1H140.291V25.75H146.429V28.5H137.145V13.1ZM151.031 25.002L151.405 22.516H158.797L159.171 25.002H151.031ZM155.057 18.094L152.747 23.396L152.813 24.1L150.789 28.5H147.247L155.057 12.198L162.867 28.5H159.303L157.323 24.232L157.367 23.44L155.057 18.094ZM168.036 21.328H171.358L176.374 28.5H172.656L168.036 21.328ZM164.538 13.1H167.684V28.5H164.538V13.1ZM166.452 15.784V13.1H169.708C170.925 13.1 171.959 13.3053 172.81 13.716C173.66 14.1267 174.313 14.6987 174.768 15.432C175.222 16.1653 175.45 17.0233 175.45 18.006C175.45 18.974 175.222 19.832 174.768 20.58C174.313 21.3133 173.66 21.8853 172.81 22.296C171.959 22.7067 170.925 22.912 169.708 22.912H166.452V20.404H169.51C170.067 20.404 170.544 20.316 170.94 20.14C171.35 19.9493 171.666 19.6853 171.886 19.348C172.106 18.996 172.216 18.578 172.216 18.094C172.216 17.61 172.106 17.1993 171.886 16.862C171.666 16.51 171.35 16.246 170.94 16.07C170.544 15.8793 170.067 15.784 169.51 15.784H166.452ZM180.204 28.5V25.838H187.97V28.5H180.204ZM180.204 15.762V13.1H187.97V15.762H180.204ZM180.204 21.636V19.018H187.53V21.636H180.204ZM178.18 13.1H181.216V28.5H178.18V13.1Z" fill="white"/>
<defs>
<filter id="filter0_b_131_108" x="-19.9219" y="-12.9688" width="99.2661" height="67.8867" filterUnits="userSpaceOnUse" color-interpolation-filters="sRGB">
<feFlood flood-opacity="0" result="BackgroundImageFix"/>
<feGaussianBlur in="BackgroundImageFix" stdDeviation="10"/>
<feComposite in2="SourceAlpha" operator="in" result="effect1_backgroundBlur_131_108"/>
<feBlend mode="normal" in="SourceGraphic" in2="effect1_backgroundBlur_131_108" result="shape"/>
</filter>
</defs>
</svg>
